0
SECTION
2
HEADER
9
$INSUNITS
70
4
9
$ACADVER
1
AC1014
9
$HANDSEED
5
FFFF
0
ENDSEC
0
SECTION
2
TABLES
0
TABLE
2
VPORT
5
8
100
AcDbSymbolTable
0
ENDTAB
0
TABLE
2
LTYPE
5
5
100
AcDbSymbolTable
0
LTYPE
5
14
100
AcDbSymbolTableRecord
100
AcDbLinetypeTableRecord
2
BYBLOCK
70
0
0
LTYPE
5
15
100
AcDbSymbolTableRecord
100
AcDbLinetypeTableRecord
2
BYLAYER
70
0
0
ENDTAB
0
TABLE
2
LAYER
5
2
100
AcDbSymbolTable
70
2
0
LAYER
5
50
100
AcDbSymbolTableRecord
100
AcDbLayerTableRecord
2
0
70
0
6
CONTINUOUS
0
ENDTAB
0
TABLE
2
STYLE
5
3
100
AcDbSymbolTable
70
1
0
STYLE
5
11
100
AcDbSymbolTableRecord
100
AcDbTextStyleTableRecord
2
STANDARD
70
0
0
ENDTAB
0
TABLE
2
VIEW
5
6
100
AcDbSymbolTable
70
0
0
ENDTAB
0
TABLE
2
UCS
5
7
100
AcDbSymbolTable
70
0
0
ENDTAB
0
TABLE
2
APPID
5
9
100
AcDbSymbolTable
70
2
0
APPID
5
12
100
AcDbSymbolTableRecord
100
AcDbRegAppTableRecord
2
ACAD
70
0
0
ENDTAB
0
TABLE
2
DIMSTYLE
5
A
100
AcDbSymbolTable
70
1
0
ENDTAB
0
TABLE
2
BLOCK_RECORD
5
1
100
AcDbSymbolTable
70
1
0
BLOCK_RECORD
5
1F
100
AcDbSymbolTableRecord
100
AcDbBlockTableRecord
2
*MODEL_SPACE
0
BLOCK_RECORD
5
1B
100
AcDbSymbolTableRecord
100
AcDbBlockTableRecord
2
*PAPER_SPACE
0
ENDTAB
0
ENDSEC
0
SECTION
2
BLOCKS
0
BLOCK
5
20
100
AcDbEntity
100
AcDbBlockBegin
2
*MODEL_SPACE
0
ENDBLK
5
21
100
AcDbEntity
100
AcDbBlockEnd
0
BLOCK
5
1C
100
AcDbEntity
100
AcDbBlockBegin
2
*PAPER_SPACE
0
ENDBLK
5
1D
100
AcDbEntity
100
AcDbBlockEnd
0
ENDSEC
0
SECTION
2
ENTITIES
0
CIRCLE
5
100
100
AcDbEntity
8
0
100
AcDbCircle
10
45.350000571459539
20
1.1102230246251565e-15
30
0
40
9.3500001393258625
210
0
220
0
230
1
0
CIRCLE
5
101
100
AcDbEntity
8
0
100
AcDbCircle
10
45.349999034777291
20
14.299999680370094
30
0
40
1.98
210
0
220
-0
230
1
0
SPLINE
5
102
100
AcDbEntity
8
0
100
AcDbSpline
70
0
71
3
72
18
73
14
74
0
42
0.000000001
43
0.0000000001
44
0.0000000001
40
0
40
0
40
0
40
0
40
0.050111023162097562
40
0.050111023162097562
40
0.10226147970240812
40
0.10226147970240812
40
0.15645047883792745
40
0.15645047883792745
40
0.21267709957749076
40
0.21267709957749076
40
0.24852047511088887
40
0.24852047511088887
40
0.28514280399519765
40
0.28514280399519765
40
0.28514280399519765
40
0.28514280399519765
10
38.406374727633519
20
14.313721038265355
30
0
10
38.53178237081125
20
14.448009773218599
30
0
10
38.682670363648512
20
14.555993855487575
30
0
10
39.023743335314116
20
14.712559298140654
30
0
10
39.211828210134826
20
14.757006675020749
30
0
10
39.602088007784147
20
14.77304991388587
30
0
10
39.800600673452344
20
14.74161049832497
30
0
10
40.182137362464978
20
14.603120965820025
30
0
10
40.360479461260859
20
14.494702709312
30
0
10
40.611189133100538
20
14.266938134827878
30
0
10
40.697589374051702
20
14.166667808482497
30
0
10
40.846335240575797
20
13.94536366781584
30
0
10
40.907564639115463
20
13.824755267610339
30
0
10
40.953821988568308
20
13.698160404387318
30
0
0
ARC
5
103
100
AcDbEntity
8
0
100
AcDbCircle
10
39.314107945870219
20
13.259793950175363
30
0
40
1.6972999999998981
210
-0
220
0
230
1
100
AcDbArc
50
-14.967516100772578
51
14.967601931461656
0
SPLINE
5
104
100
AcDbEntity
8
0
100
AcDbSpline
70
0
71
3
72
18
73
14
74
0
42
0.000000001
43
0.0000000001
44
0.0000000001
40
0
40
0
40
0
40
0
40
0.059038687326662259
40
0.059038687326662259
40
0.11603342985477066
40
0.11603342985477066
40
0.17098340798687753
40
0.17098340798687753
40
0.22388783903962603
40
0.22388783903962603
40
0.25550516053608185
40
0.25550516053608185
40
0.28634738033225199
40
0.28634738033225199
40
0.28634738033225199
40
0.28634738033225199
10
40.953822645251741
20
12.821429952301646
30
0
10
40.879528017565683
20
12.618103085348507
30
0
10
40.766884329329294
20
12.430966857554999
30
0
10
40.480268306081655
20
12.116975436873501
30
0
10
40.311209346949255
20
11.991224131326081
30
0
10
39.940658561689006
20
11.816138483569645
30
0
10
39.743995536136737
20
11.765896457161011
30
0
10
39.349988817932442
20
11.745446876480248
30
0
10
39.156617802813749
20
11.77255919784667
30
0
10
38.865143672437064
20
11.874914994494253
30
0
10
38.761057841192624
20
11.926051990300977
30
0
10
38.569966788022725
20
12.050861527490701
30
0
10
38.483282953961265
20
12.123512743483611
30
0
10
38.406376306446944
20
12.205865502276685
30
0
0
ARC
5
105
100
AcDbEntity
8
0
100
AcDbCircle
10
39.314107945870219
20
13.259793950175363
30
0
40
1.3909500000000765
210
0
220
0
230
1
100
AcDbArc
50
130.73787790936734
51
229.2622079213206
0
LWPOLYLINE
5
106
100
AcDbEntity
8
0
100
AcDbPolyline
90
6
70
1
43
0.0
10
37.13984017209593
20
11.029767533870478
42
4.1366105277692053
10
49.529999034777305
20
13.09924114142353
10
49.529999034777283
20
17.662109524251726
42
0.11672029651361358
10
41.169999034777305
20
17.662108796894454
10
41.169999034777277
20
17.096420513238911
42
0.10035808224673023
10
34.840995571395453
20
14.118102603423386
0
ENDSEC
0
SECTION
2
OBJECTS
0
DICTIONARY
5
C
100
AcDbDictionary
3
ACAD_GROUP
350
D
3
ACAD_MLINESTYLE
350
17
0
DICTIONARY
5
D
100
AcDbDictionary
0
DICTIONARY
5
1A
330
C
100
AcDbDictionary
0
DICTIONARY
5
17
100
AcDbDictionary
0
ENDSEC
0
EOF
